<svg width="31" height="31" viewBox="0 0 31 31" fill="none" xmlns="http://www.w3.org/2000/svg"><path d="M25.559 7.492h-2.051v-2.05A2.444 2.444 0 0021.066 3H5.441A2.444 2.444 0 003 5.441v15.625a2.444 2.444 0 002.441 2.442h2.051v2.05A2.444 2.444 0 009.934 28h15.625A2.444 2.444 0 0028 25.559V9.934a2.444 2.444 0 00-2.441-2.442zM5.44 22.532a1.466 1.466 0 01-1.464-1.466V5.441c0-.807.657-1.464 1.464-1.464h15.625c.808 0 1.465.657 1.465 1.464v15.625c0 .808-.657 1.465-1.465 1.465H5.441zm21.582 3.027c0 .807-.657 1.464-1.464 1.464H9.934a1.466 1.466 0 01-1.465-1.464v-2.051h12.597a2.444 2.444 0 002.442-2.442V8.47h2.05c.808 0 1.465.657 1.465 1.465V25.56z" fill="#01A0A3"/><path d="M9.945 25.314h-.013a.488.488 0 100 .977h.013a.488.488 0 100-.977zm15.615 0H11.347a.488.488 0 100 .977H25.56a.488.488 0 000-.977zM8.372 4.709H8.36a.488.488 0 100 .977h.013a.488.488 0 100-.977zm-1.416 0H5.441a.488.488 0 100 .977h1.515a.488.488 0 000-.977zM17.33 12.82a1.655 1.655 0 00-.778-1.01l-2.388-1.379a1.584 1.584 0 00-.073-.044L11.71 9.01a1.673 1.673 0 00-2.59 1.396V16.1c0 .02.002.04.004.059a1.671 1.671 0 001.669 1.61c.292 0 .58-.078.834-.225l2.465-1.423a.504.504 0 00.04-.026l2.404-1.388a1.664 1.664 0 00.795-1.888zm-1.01.778a.688.688 0 01-.27.263l-2.448 1.413a.504.504 0 00-.04.026l-2.425 1.4a.69.69 0 01-1.039-.598c0-.017 0-.033-.002-.05v-5.645a.695.695 0 011.111-.558l2.397 1.384a.646.646 0 01.06.037l2.401 1.387c.16.091.274.24.322.418a.685.685 0 01-.068.523z" fill="#01A0A3"/></svg>