<svg width="31" height="31" viewBox="0 0 31 31" fill="none" xmlns="http://www.w3.org/2000/svg"><path d="M8.133 12.836a2.167 2.167 0 100 4.334 2.167 2.167 0 000-4.334zm0 3.467a1.3 1.3 0 110-2.6 1.3 1.3 0 010 2.6zM16.8 8.07a2.167 2.167 0 100-4.334 2.167 2.167 0 000 4.334zm0-3.467a1.3 1.3 0 110 2.6 1.3 1.3 0 010-2.6z" fill="#01A0A3"/><path d="M27.2 15.186v-1.484a2.163 2.163 0 00-1.896-2.14l-4.627-5.24a3.9 3.9 0 10-7.777-.42c0 .069.007.136.01.204l-5.008 5.008A3.89 3.89 0 005.533 17.9v6.634h-2.6a.433.433 0 00-.433.434v2.6c0 .239.194.433.433.433H19.4c.24 0 .433-.194.433-.433v-2.6a.433.433 0 00-.433-.434h-8.667V17.9a3.832 3.832 0 001.247-3.51l4.6-4.6c.073.004.146.01.22.01.22 0 .44-.02.657-.059l5.41 4.263v1.181a2.167 2.167 0 00-1.3 1.983v4.333a.433.433 0 00.627.39l1.733-.867a.433.433 0 00.24-.39v-3.033H25.9v3.033c0 .165.092.317.24.39l1.733.867a.433.433 0 00.627-.39v-4.333a2.167 2.167 0 00-1.3-1.983zM16.8 2.869a3.033 3.033 0 110 6.066 3.033 3.033 0 010-6.066zm2.167 24.266h-15.6v-1.733h15.6v1.733zm-9.1-2.6H6.4V18.49a3.857 3.857 0 003.467 0v6.045zm-1.734-6.5a3.033 3.033 0 110-6.066 3.033 3.033 0 010 6.066zm3.572-4.593a3.913 3.913 0 00-2.674-2.23l4.074-4.073a3.912 3.912 0 002.447 2.455l-3.848 3.848zm8.716-6.1l3.835 4.344A2.166 2.166 0 0022.993 13l-4.535-3.573a3.918 3.918 0 001.963-2.085zm3.312 6.36a1.3 1.3 0 012.6 0v1.3h-2.6v-1.3zm3.9 7.099l-.866-.434V17.17a.433.433 0 00-.434-.434h-2.6a.433.433 0 00-.433.434v3.198l-.867.434V17.17a1.3 1.3 0 011.3-1.3h2.6a1.3 1.3 0 011.3 1.3v3.63z" fill="#01A0A3"/><path d="M7.7 20.201a.433.433 0 00-.433.433v2.6a.433.433 0 00.866 0v-2.6a.433.433 0 00-.433-.433zm4.894-11.138l-1.734 1.733a.433.433 0 10.613.613l1.733-1.733a.434.434 0 00-.612-.613z" fill="#01A0A3"/></svg>