<svg width="31" height="31" viewBox="0 0 31 31" fill="none" xmlns="http://www.w3.org/2000/svg"><path d="M28.854 13.785L12.377 4.273a2.062 2.062 0 00-2.812.753L7.668 8.312l-1.263 2.187a2.062 2.062 0 00.754 2.813l5.65 3.261-.88 1.499a1.326 1.326 0 01-1.139.652H7.492V16.21a.37.37 0 00-.37-.37H5.117v-.476a1.639 1.639 0 00-1.637-1.637H2.37a.37.37 0 00-.369.37v12.53a.37.37 0 00.37.37H3.48a1.64 1.64 0 001.637-1.638v-1.174h2.007a.37.37 0 00.37-.37v-1.817h3.297a4.612 4.612 0 003.964-2.27l.89-1.517 3.096 1.788a2.05 2.05 0 001.563.206c.336-.09.644-.264.895-.505a3.08 3.08 0 002.103.179 3.088 3.088 0 001.683-1.141l.757.437a.37.37 0 00.506-.136l2.741-4.748a.37.37 0 00-.134-.506zM4.376 25.36a.898.898 0 01-.897.898h-.74V14.466h.74a.899.899 0 01.897.898v9.995zm2.377-1.914H5.116V16.58h1.637v6.865zm7.363-4.09a3.87 3.87 0 01-3.325 1.904H7.492v-1.795h3.298a2.067 2.067 0 001.777-1.018l.882-1.502 1.555.897-.888 1.514zm4.994.003L7.53 12.672a1.322 1.322 0 01-.484-1.804l1.078-1.866 10.614 6.128 3.254 1.879-1.078 1.867-.001.002a1.3 1.3 0 01-.093.138v.001a1.321 1.321 0 01-1.709.341zm4-.194a2.355 2.355 0 01-1.465-.077l.987-1.71 1.71.988a2.356 2.356 0 01-1.232.8zm2.682-.815l-2.39-1.38-.722-.417-8.161-4.711-6.026-3.48 1.712-2.965a1.322 1.322 0 011.803-.483l16.156 9.328-2.372 4.108z" fill="#18ACAE"/><path d="M24.213 16.34a1.413 1.413 0 001.078.142 1.421 1.421 0 10-1.078-.142zm.12-1.572a.678.678 0 01.592-.34.683.683 0 11-.592.341v-.001zm-12.722-2.173l-3.029-1.75a.369.369 0 10-.37.641l3.03 1.749a.37.37 0 00.37-.64z" fill="#18ACAE"/></svg>