<svg width="31" height="31" viewBox="0 0 31 31" fill="none" xmlns="http://www.w3.org/2000/svg"><path d="M25.036 20.178a.508.508 0 100-1.016.508.508 0 000 1.016zm-19.331 0a.508.508 0 100-1.016.508.508 0 000 1.016z" fill="#18ACAE"/><path d="M27.71 27.484h-4.36l-.027-12.48a.508.508 0 00-.508-.507h-.002a.508.508 0 00-.506.509l.026 12.478h-1.475l-.013-5.553a.508.508 0 00-1.016.002l.014 5.551h-1.234v-6.721c1.438-.127 2.568-1.309 2.568-2.743v-4.922c0-.783-.166-1.55-.483-2.258a4.204 4.204 0 012.654 1.168 3.937 3.937 0 011.223 2.843l.009 2.89c0 .28.228.506.508.506h.002c.28 0 .507-.229.506-.51l-.01-2.89a4.944 4.944 0 00-1.532-3.57 5.192 5.192 0 00-1.96-1.19 2.68 2.68 0 00.836-1.951 2.69 2.69 0 00-2.687-2.682h-.006c-.43.001-.859.107-1.239.305a.508.508 0 10.471.9 1.673 1.673 0 012.445 1.479 1.673 1.673 0 01-1.667 1.675.508.508 0 00-.065.005c-.027 0-.054.002-.08.003a5.78 5.78 0 00-2.938-2.102 2.973 2.973 0 001.017-2.24 2.983 2.983 0 00-2.98-2.979 2.983 2.983 0 00-2.979 2.98c0 .935.433 1.77 1.11 2.317a5.774 5.774 0 00-2.707 2.021 5.391 5.391 0 00-.354-.004l-.028-.001c-.922 0-1.671-.75-1.671-1.672a1.673 1.673 0 012.468-1.47.508.508 0 00.485-.892 2.69 2.69 0 00-3.97 2.362c0 .807.359 1.532.924 2.025-1.92.74-3.282 2.565-3.282 4.693v2.88a.508.508 0 001.016 0v-2.88c0-2.107 1.681-3.84 3.816-4.015a5.512 5.512 0 00-.482 2.254v4.922c0 1.463 1.175 2.662 2.654 2.75v6.714h-1.384v-5.552a.508.508 0 10-1.016 0v5.552H8.553V15.01a.508.508 0 10-1.016 0v12.474h-4.03a.508.508 0 100 1.016H27.71a.508.508 0 000-1.016zM13.238 5.48c0-1.083.88-1.964 1.964-1.964 1.082 0 1.963.88 1.963 1.964 0 1.082-.88 1.963-1.963 1.963a1.966 1.966 0 01-1.964-1.963zm4.862 7.28a.508.508 0 00-.508.508v14.215h-1.809v-7.066a.508.508 0 00-1.015 0v7.066h-1.553V13.27a.508.508 0 00-1.015 0v6.482c-.918-.083-1.638-.828-1.638-1.731v-4.922c0-.88.255-1.735.74-2.474.885-1.356 2.403-2.165 4.06-2.165 1.658 0 3.177.811 4.063 2.17.48.739.735 1.592.735 2.469v4.922c0 .875-.676 1.6-1.552 1.721V13.27a.508.508 0 00-.508-.508z" fill="#18ACAE"/></svg>