<svg width="31" height="31" viewBox="0 0 31 31" fill="none" xmlns="http://www.w3.org/2000/svg"><path d="M28.795 14.631l-4.982-4.254.018-.093V4.72a.62.62 0 00-.6-.611H20.45c-.32 0-.582.285-.582.611v2.305l-3.986-3.399a.582.582 0 00-.757 0l-12.914 11a.582.582 0 10.745.896l.012-.012L15.503 4.837 19.99 8.66l2.683 2.281 5.371 4.575a.58.58 0 00.82-.064.587.587 0 00-.069-.82zm-6.134-5.238l-1.63-1.373V5.279h1.63v4.114z" fill="#01A0A3"/><path fill-rule="evenodd" clip-rule="evenodd" d="M26.229 15.806c.244.204.279.57.064.82a.588.588 0 01-.443.204.579.579 0 01-.372-.14l-.728-.628v10.912a.61.61 0 01-.6.6h-7.075v.556h-.9v-2.7h.9v.974h1.206v-7.186h-5.556v7.186h1.2v-.974h.9v2.7h-.9v-.556H6.849a.614.614 0 01-.6-.6V16.062l-.727.629-.006.006a.566.566 0 01-.803-.07.581.581 0 01.064-.82l10.347-8.841a.582.582 0 01.757 0l10.348 8.84zm-6.784 2.848v7.75h4.147V15.067l-8.09-6.89-8.089 6.89v11.337h4.148v-7.75c0-.32.238-.6.559-.6h6.766c.32 0 .559.28.559.6z" fill="#01A0A3"/></svg>