<svg width="31" height="31" viewBox="0 0 31 31" fill="none" xmlns="http://www.w3.org/2000/svg"><path d="M27.556 13.86c-2.168-4.892-4.613-6.482-7.925-5.157a3.407 3.407 0 00-1.408 1.02h-1.64v-1.73a.4.4 0 00-.399-.4h-.285V4.898a.4.4 0 00-.798 0v2.697h-.285a.4.4 0 00-.399.399v1.73h-1.64a3.407 3.407 0 00-1.408-1.02c-3.312-1.324-5.757.265-7.925 5.158-1.752 3.951-1.75 8.342-.843 10.637.388.979.948 1.647 1.623 1.933.349.147.723.223 1.101.223 1.962 0 3.899-2.003 5.176-4.129a2.339 2.339 0 012.014-1.154h5.969a2.34 2.34 0 012.014 1.154c1.518 2.524 3.963 4.875 6.28 3.905.673-.285 1.234-.953 1.621-1.932.907-2.295.909-6.686-.843-10.638zM15.215 8.393h.57v1.331h-.57V8.392zm12.442 15.812c-.307.775-.718 1.291-1.19 1.49-1.846.775-4-1.445-5.285-3.58a3.174 3.174 0 00-2.698-1.542h-5.968a3.173 3.173 0 00-2.698 1.542c-1.284 2.135-3.438 4.354-5.285 3.581-.473-.2-.884-.716-1.19-1.491-.847-2.14-.833-6.269.83-10.02 1.783-4.025 3.473-5.15 5.07-5.15.63.02 1.25.158 1.829.41.475.18.885.496 1.18.91a.4.4 0 00.326.167h5.843a.4.4 0 00.326-.168c.295-.413.706-.73 1.18-.909 2.118-.847 4.419-.858 6.9 4.74 1.662 3.751 1.676 7.88.83 10.02z" fill="#18ACAE"/><path d="M26.619 18.22c.183 1.04.25 2.096.202 3.15a.4.4 0 00.378.42h.021a.4.4 0 00.398-.378c.051-1.115-.02-2.23-.213-3.33a.399.399 0 10-.786.137zm-15.722-3.88H9.7v-1.197a.398.398 0 00-.399-.399H7.933a.4.4 0 00-.399.4v1.196H6.337a.4.4 0 00-.399.4v1.367a.399.399 0 00.399.4h1.197v1.196a.399.399 0 00.399.4h1.368a.4.4 0 00.4-.4v-1.197h1.196a.4.4 0 00.4-.399V14.74a.4.4 0 00-.4-.399zm-.399 1.368H9.301a.4.4 0 00-.399.4v1.196h-.57v-1.197a.399.399 0 00-.399-.399H6.736v-.57h1.197a.4.4 0 00.4-.399v-1.197h.57v1.197a.399.399 0 00.398.4h1.197v.57zm6.624 2.774h-3.244a.4.4 0 000 .798h3.244a.399.399 0 100-.798zm4.538-3.839a1.312 1.312 0 100-2.623 1.312 1.312 0 000 2.623zm0-1.824a.513.513 0 110 1.026.513.513 0 010-1.026zm0 3.384a1.31 1.31 0 100 2.621 1.31 1.31 0 000-2.62zm0 1.824a.513.513 0 110-1.026.513.513 0 010 1.026zm2.09-3.914a1.311 1.311 0 100 2.622 1.311 1.311 0 000-2.622zm0 1.824a.513.513 0 110-1.026.513.513 0 010 1.026zm-2.87-.513a1.31 1.31 0 10-2.62 0 1.31 1.31 0 002.62 0zm-1.31.513z" fill="#18ACAE"/></svg>