<svg width="31" height="31" viewBox="0 0 31 31" fill="none" xmlns="http://www.w3.org/2000/svg">
<path d="M8.13331 12.8359C6.93678 12.8359 5.96664 13.8061 5.96664 15.0026C5.96664 16.1991 6.93678 17.1693 8.13331 17.1693C9.32984 17.1693 10.3 16.1991 10.3 15.0026C10.2985 13.8065 9.32942 12.8374 8.13331 12.8359ZM8.13331 16.3026C7.41539 16.3026 6.83331 15.7205 6.83331 15.0026C6.83331 14.2847 7.41539 13.7026 8.13331 13.7026C8.85123 13.7026 9.43331 14.2847 9.43331 15.0026C9.43331 15.7205 8.85123 16.3026 8.13331 16.3026Z" fill="#01A0A3"/>
<path d="M16.8 8.06966C17.9965 8.06966 18.9666 7.09953 18.9666 5.90299C18.9666 4.70646 17.9965 3.73633 16.8 3.73633C15.6034 3.73633 14.6333 4.70646 14.6333 5.90299C14.6348 7.0991 15.6039 8.06818 16.8 8.06966ZM16.8 4.60299C17.5179 4.60299 18.1 5.18507 18.1 5.90299C18.1 6.62091 17.5179 7.20299 16.8 7.20299C16.0821 7.20299 15.5 6.62091 15.5 5.90299C15.5 5.18507 16.0821 4.60299 16.8 4.60299Z" fill="#01A0A3"/>
<path d="M27.2 15.1856V13.7019C27.1966 12.6131 26.3841 11.6967 25.3037 11.5626L20.6765 6.32195C20.6917 6.18231 20.6995 6.04223 20.7 5.90195C20.7 3.74798 18.9539 2.00195 16.8 2.00195C14.646 2.00195 12.9 3.74798 12.9 5.90195C12.9 5.97093 12.9069 6.038 12.9103 6.10571L7.90225 11.1136C6.33141 11.2031 4.96921 12.2301 4.4506 13.7157C3.932 15.2013 4.35941 16.8529 5.5333 17.9005V24.5353H2.9333C2.694 24.5353 2.49997 24.7293 2.49997 24.9686V27.5686C2.49997 27.8079 2.694 28.0019 2.9333 28.0019H19.4C19.6393 28.0019 19.8333 27.8079 19.8333 27.5686V24.9686C19.8333 24.7293 19.6393 24.5353 19.4 24.5353H10.7333V17.9005C11.728 17.0249 12.1996 15.6974 11.9804 14.3905L16.5791 9.79073C16.6527 9.79497 16.7255 9.80195 16.8 9.80195C17.0204 9.80068 17.2403 9.78058 17.4574 9.74207L22.8666 14.0054V15.1865C22.0782 15.5307 21.5681 16.3085 21.5666 17.1686V21.5019C21.5658 21.6526 21.6432 21.7927 21.771 21.8722C21.899 21.9518 22.059 21.9592 22.1936 21.8919L23.9269 21.0252C24.0746 20.9516 24.1675 20.8003 24.1666 20.6353V17.6019H25.9V20.6353C25.8991 20.8003 25.992 20.9516 26.1397 21.0252L27.873 21.8919C28.0076 21.9592 28.1676 21.9518 28.2956 21.8722C28.4234 21.7927 28.5008 21.6526 28.5 21.5019V17.1686C28.4989 16.3081 27.9885 15.5299 27.2 15.1856ZM16.8 2.86862C18.4753 2.86862 19.8333 4.22659 19.8333 5.90195C19.8333 7.57731 18.4753 8.93528 16.8 8.93528C15.1246 8.93528 13.7666 7.57731 13.7666 5.90195C13.7685 4.22744 15.1255 2.87052 16.8 2.86862ZM18.9666 27.1353H3.36664V25.4019H18.9666V27.1353ZM9.86663 24.5353H6.39997V18.4902C7.49049 19.0388 8.77611 19.0388 9.86663 18.4902V24.5353ZM8.1333 18.0353C6.45794 18.0353 5.09997 16.6773 5.09997 15.0019C5.09997 13.3266 6.45794 11.9686 8.1333 11.9686C9.80866 11.9686 11.1666 13.3266 11.1666 15.0019C11.1647 16.6765 9.80781 18.0334 8.1333 18.0353ZM11.7045 13.4419C11.2113 12.3215 10.2219 11.4966 9.03107 11.2124L13.1046 7.13911C13.4935 8.29396 14.398 9.20167 15.5516 9.59438L11.7045 13.4419ZM20.4213 7.34202L24.2563 11.6857C23.6624 11.9168 23.2003 12.3977 22.9932 13.0003L18.458 9.42659C19.3519 9.00447 20.0533 8.25968 20.4213 7.34202ZM23.7333 13.7019C23.7333 12.984 24.3154 12.4019 25.0333 12.4019C25.7512 12.4019 26.3333 12.984 26.3333 13.7019V15.0019H23.7333V13.7019ZM27.6333 20.8007L26.7666 20.3674V17.1686C26.7666 16.9293 26.5726 16.7353 26.3333 16.7353H23.7333C23.494 16.7353 23.3 16.9293 23.3 17.1686V20.3674L22.4333 20.8007V17.1686C22.4333 16.4507 23.0154 15.8686 23.7333 15.8686H26.3333C27.0512 15.8686 27.6333 16.4507 27.6333 17.1686V20.8007Z" fill="#01A0A3"/>
<path d="M7.69998 20.2012C7.46067 20.2012 7.26665 20.3952 7.26665 20.6345V23.2345C7.26665 23.4738 7.46067 23.6678 7.69998 23.6678C7.93929 23.6678 8.13332 23.4738 8.13332 23.2345V20.6345C8.13332 20.3952 7.93929 20.2012 7.69998 20.2012Z" fill="#01A0A3"/>
<path d="M12.5936 9.06303L10.8603 10.7964C10.7477 10.9051 10.7024 11.0664 10.7422 11.2178C10.7818 11.3693 10.9 11.4876 11.0515 11.5272C11.203 11.567 11.3643 11.5217 11.473 11.4091L13.2064 9.67579C13.3705 9.50568 13.3682 9.23548 13.2011 9.06832C13.0339 8.90117 12.7637 8.89884 12.5936 9.06303Z" fill="#01A0A3"/>
</svg>
