<svg width="31" height="31" viewBox="0 0 31 31" fill="none" xmlns="http://www.w3.org/2000/svg">
<path d="M25.5586 7.49227H23.5078V5.4414C23.5078 4.09521 22.4125 3 21.0664 3H5.44142C4.09523 3 3.00002 4.09521 3.00002 5.4414V21.0663C3.00002 22.4125 4.09523 23.5077 5.44142 23.5077H7.49224V25.5586C7.49224 26.9048 8.58745 28 9.93364 28H25.5586C26.9048 28 28 26.9048 28 25.5586V9.93362C28 8.58743 26.9048 7.49227 25.5586 7.49227ZM5.44142 22.5312C4.63371 22.5312 3.97658 21.8741 3.97658 21.0663V5.4414C3.97658 4.63369 4.63371 3.97656 5.44142 3.97656H21.0664C21.8741 3.97656 22.5312 4.63369 22.5312 5.4414V21.0663C22.5312 21.874 21.8741 22.5312 21.0664 22.5312H5.44142ZM27.0234 25.5586C27.0234 26.3663 26.3663 27.0234 25.5586 27.0234H9.93364C9.12593 27.0234 8.4688 26.3663 8.4688 25.5586V23.5077H21.0664C22.4125 23.5077 23.5078 22.4125 23.5078 21.0663V8.46883H25.5586C26.3663 8.46883 27.0234 9.12595 27.0234 9.93366V25.5586Z" fill="#01A0A3"/>
<path d="M9.9454 25.3145H9.93222C9.66254 25.3145 9.44394 25.5331 9.44394 25.8027C9.44394 26.0724 9.66254 26.291 9.93222 26.291H9.9454C10.2151 26.291 10.4337 26.0724 10.4337 25.8027C10.4337 25.5331 10.2151 25.3145 9.9454 25.3145Z" fill="#01A0A3"/>
<path d="M25.5593 25.3145H11.3482C11.0785 25.3145 10.8599 25.5331 10.8599 25.8027C10.8599 26.0724 11.0785 26.291 11.3482 26.291H25.5593C25.8289 26.291 26.0476 26.0724 26.0476 25.8027C26.0476 25.5331 25.829 25.3145 25.5593 25.3145Z" fill="#01A0A3"/>
<path d="M8.3724 4.70898H8.35921C8.08954 4.70898 7.87093 4.92759 7.87093 5.19726C7.87093 5.46694 8.08954 5.68554 8.35921 5.68554H8.3724C8.64207 5.68554 8.86068 5.46694 8.86068 5.19726C8.86068 4.92759 8.64212 4.70898 8.3724 4.70898Z" fill="#01A0A3"/>
<path d="M6.95645 4.70898H5.44108C5.1714 4.70898 4.9528 4.92759 4.9528 5.19726C4.9528 5.46694 5.1714 5.68554 5.44108 5.68554H6.9564C7.22608 5.68554 7.44468 5.46694 7.44468 5.19726C7.44473 4.92759 7.22613 4.70898 6.95645 4.70898Z" fill="#01A0A3"/>
<path d="M17.3299 12.8199C17.2138 12.3903 16.9374 12.0315 16.5524 11.8103L14.1639 10.4313C14.1399 10.4158 14.1157 10.4008 14.0914 10.3869L11.709 9.01128C11.4361 8.83135 11.1189 8.73633 10.7904 8.73633C9.86896 8.73633 9.1193 9.48593 9.1193 10.4074V16.1013C9.1193 16.1212 9.12052 16.1408 9.12282 16.16C9.13244 16.4325 9.20934 16.7001 9.34674 16.9374C9.6441 17.4508 10.1977 17.7698 10.7916 17.7698C11.0838 17.7698 11.3726 17.6921 11.626 17.5453L14.0914 16.1218C14.1054 16.1137 14.1188 16.105 14.1317 16.0958L16.5349 14.7084C16.7973 14.5619 17.0154 14.3463 17.1659 14.0845C17.3877 13.6986 17.4459 13.2495 17.3299 12.8199ZM16.3194 13.5978C16.2567 13.7069 16.166 13.7964 16.0572 13.8568C16.0548 13.8581 16.0524 13.8595 16.05 13.8609L13.6021 15.274C13.5881 15.2821 13.5747 15.2908 13.5618 15.3L11.1372 16.6999C11.0317 16.761 10.9122 16.7933 10.7916 16.7933C10.545 16.7933 10.3151 16.661 10.1918 16.448C10.1306 16.3424 10.0983 16.2226 10.0984 16.1018C10.0984 16.0852 10.0976 16.0686 10.0959 16.0522V10.4074H10.096C10.096 10.0245 10.4075 9.71289 10.7905 9.71289C10.9297 9.71289 11.0637 9.75371 11.178 9.8309C11.1875 9.8373 11.1972 9.8434 11.2071 9.84917L13.6041 11.2331C13.6162 11.2401 13.6277 11.2474 13.6391 11.255C13.6472 11.2603 13.6555 11.2654 13.6639 11.2703L16.0651 12.6566C16.2247 12.7483 16.3391 12.8968 16.3871 13.0746C16.4351 13.2524 16.4111 13.4383 16.3194 13.5978Z" fill="#01A0A3"/>
</svg>
