<svg width="31" height="31" viewBox="0 0 31 31" fill="none" xmlns="http://www.w3.org/2000/svg">
<path d="M28.8539 13.7851L12.3772 4.27281C11.9041 4.00059 11.3424 3.92705 10.8151 4.06829C10.2879 4.20953 9.83817 4.55404 9.56451 5.0263L7.66758 8.31171L6.40479 10.4987C6.13241 10.9719 6.05885 11.5339 6.20022 12.0613C6.34159 12.5888 6.68636 13.0386 7.15891 13.3122L12.8081 16.5735L11.9296 18.0716C11.8127 18.2699 11.6462 18.4344 11.4465 18.5488C11.2468 18.6632 11.0207 18.7236 10.7905 18.7241H7.49225V16.2104C7.49225 16.1123 7.4533 16.0183 7.38398 15.949C7.31465 15.8797 7.22062 15.8407 7.12258 15.8407H5.1158V15.3637C5.1153 14.9297 4.94266 14.5136 4.63575 14.2067C4.32884 13.8998 3.91273 13.7271 3.47869 13.7266H2.36968C2.32113 13.7266 2.27305 13.7361 2.22818 13.7547C2.18332 13.7733 2.14256 13.8005 2.10823 13.8348C2.07389 13.8692 2.04667 13.9099 2.0281 13.9548C2.00953 13.9997 1.99999 14.0477 2.00001 14.0963V26.6264C1.99999 26.675 2.00953 26.723 2.0281 26.7679C2.04667 26.8128 2.07389 26.8535 2.10823 26.8879C2.14256 26.9222 2.18332 26.9494 2.22818 26.968C2.27305 26.9866 2.32113 26.9961 2.36968 26.9961H3.47869C3.91273 26.9956 4.32884 26.8229 4.63575 26.516C4.94266 26.2091 5.1153 25.793 5.1158 25.359V24.1847H7.12258C7.22062 24.1847 7.31465 24.1457 7.38398 24.0764C7.4533 24.0071 7.49225 23.9131 7.49225 23.815V21.9984H10.7905C11.5914 21.9967 12.3779 21.7865 13.0729 21.3885C13.7678 20.9905 14.3471 20.4184 14.7538 19.7286L15.6438 18.211L18.7403 19.9988C19.0521 20.1797 19.4061 20.2751 19.7665 20.2755C19.9477 20.2754 20.1281 20.2515 20.3031 20.2045C20.6393 20.1151 20.9472 19.9414 21.1977 19.6999C21.6027 19.8878 22.0438 19.9854 22.4903 19.9859C22.7639 19.9857 23.0363 19.9496 23.3006 19.8786C23.9746 19.6994 24.5681 19.2974 24.9844 18.7379L25.7415 19.1749C25.7835 19.1992 25.8299 19.215 25.8781 19.2214C25.9262 19.2277 25.9752 19.2245 26.0221 19.2119C26.069 19.1994 26.113 19.1777 26.1515 19.1481C26.19 19.1185 26.2223 19.0816 26.2465 19.0395L28.9884 14.2906C29.0128 14.2486 29.0286 14.2022 29.0351 14.1541C29.0415 14.1059 29.0383 14.057 29.0258 14.01C29.0134 13.9631 28.9917 13.9191 28.9622 13.8805C28.9327 13.8419 28.8959 13.8095 28.8539 13.7851ZM4.37646 25.359C4.37624 25.597 4.28158 25.8252 4.11326 25.9935C3.94495 26.1619 3.71673 26.2565 3.47869 26.2567H2.73935V14.466H3.47869C3.71673 14.4662 3.94495 14.5609 4.11326 14.7292C4.28158 14.8975 4.37624 15.1257 4.37646 15.3637V25.359ZM6.75291 23.4454H5.1158V16.5801H6.75291V23.4454ZM14.1159 19.3545C13.7747 19.9334 13.2886 20.4134 12.7056 20.7474C12.1225 21.0814 11.4625 21.2578 10.7905 21.2592H7.49225V19.4637H10.7905C11.1496 19.4629 11.5022 19.3687 11.8137 19.1902C12.1253 19.0117 12.385 18.7552 12.5673 18.4459L13.4492 16.9436L15.0044 17.8414L14.1159 19.3545ZM19.1104 19.3585L7.52858 12.6719C7.22561 12.4966 7.00457 12.2082 6.91396 11.8701C6.82335 11.532 6.87057 11.1717 7.04527 10.8683L8.12259 9.00162L18.7368 15.1297L21.9909 17.0085L20.9134 18.876L20.9119 18.8783C20.8838 18.926 20.8527 18.9719 20.8187 19.0157V19.0171C20.6238 19.2715 20.3431 19.4463 20.0288 19.5091C19.7145 19.5719 19.3882 19.5184 19.1104 19.3585ZM23.1107 19.1644C22.6265 19.2953 22.1131 19.2683 21.6453 19.0873L22.6324 17.3777L24.342 18.3646C24.0271 18.7556 23.5956 19.0358 23.1103 19.1644H23.1107ZM25.7924 18.349L23.4018 16.9687L22.6804 16.5524L14.5187 11.8405L8.49268 8.36135L10.2048 5.39597C10.3802 5.09307 10.6686 4.87212 11.0067 4.78159C11.3448 4.69106 11.705 4.73835 12.0083 4.91308L28.164 14.2408L25.7924 18.349Z" fill="#18ACAE"/>
<path d="M24.2127 16.3402C24.428 16.4653 24.6725 16.5312 24.9214 16.5314C25.0464 16.5313 25.1708 16.5148 25.2915 16.4824C25.6092 16.3973 25.8876 16.2047 26.0792 15.9373C26.2708 15.67 26.3638 15.3445 26.3423 15.0163C26.3209 14.6881 26.1862 14.3775 25.9614 14.1374C25.7366 13.8974 25.4355 13.7427 25.1095 13.6997C24.7834 13.6567 24.4525 13.7281 24.1732 13.9018C23.8938 14.0754 23.6833 14.3406 23.5776 14.652C23.4718 14.9634 23.4773 15.3019 23.5931 15.6097C23.7089 15.9176 23.9279 16.1757 24.2127 16.3402ZM24.3329 14.768C24.3776 14.6904 24.4373 14.6225 24.5084 14.5681C24.5795 14.5137 24.6606 14.474 24.7472 14.4511C24.805 14.4356 24.8647 14.4277 24.9246 14.4277C25.0749 14.4277 25.2211 14.4773 25.3403 14.5688C25.4596 14.6604 25.5453 14.7887 25.5842 14.9339C25.6231 15.0792 25.613 15.2331 25.5554 15.372C25.4979 15.5109 25.3961 15.6269 25.2659 15.7021C25.1357 15.7772 24.9843 15.8073 24.8353 15.7877C24.6862 15.768 24.5478 15.6997 24.4415 15.5934C24.3352 15.4871 24.267 15.3487 24.2474 15.1996C24.2278 15.0506 24.2579 14.8992 24.3331 14.769L24.3329 14.768Z" fill="#18ACAE"/>
<path d="M11.6114 12.595L8.58224 10.8457C8.54018 10.821 8.49366 10.8049 8.44536 10.7983C8.39706 10.7917 8.34792 10.7947 8.30079 10.8072C8.25366 10.8197 8.20946 10.8413 8.17073 10.8709C8.132 10.9006 8.09952 10.9375 8.07514 10.9798C8.05076 11.022 8.03498 11.0686 8.02869 11.1169C8.02241 11.1653 8.02575 11.2144 8.03852 11.2614C8.0513 11.3085 8.07325 11.3526 8.10312 11.3911C8.13299 11.4296 8.17019 11.4619 8.21257 11.486L11.2426 13.235C11.3271 13.2792 11.4255 13.289 11.5171 13.2624C11.6088 13.2357 11.6865 13.1747 11.7342 13.092C11.7818 13.0093 11.7956 12.9114 11.7728 12.8188C11.7499 12.7262 11.6921 12.646 11.6114 12.595Z" fill="#18ACAE"/>
</svg>
