<svg width="31" height="31" viewBox="0 0 31 31" fill="none" xmlns="http://www.w3.org/2000/svg">
<path d="M27.5563 13.8605C25.3882 8.96797 22.9433 7.3781 19.6309 8.70326C19.0813 8.91576 18.5962 9.26715 18.223 9.72311H16.583V7.99257C16.583 7.94016 16.5727 7.88826 16.5527 7.83984C16.5326 7.79142 16.5032 7.74742 16.4662 7.71037C16.4291 7.67331 16.3851 7.64392 16.3367 7.62388C16.2883 7.60384 16.2364 7.59354 16.184 7.59357H15.899V4.89705C15.899 4.79123 15.8569 4.68974 15.7821 4.61491C15.7073 4.54008 15.6058 4.49805 15.5 4.49805C15.3941 4.49805 15.2927 4.54008 15.2178 4.61491C15.143 4.68974 15.101 4.79123 15.101 4.89705V7.59357H14.816C14.7636 7.59354 14.7117 7.60384 14.6632 7.62388C14.6148 7.64392 14.5708 7.67331 14.5338 7.71037C14.4967 7.74742 14.4673 7.79142 14.4473 7.83984C14.4272 7.88826 14.4169 7.94016 14.417 7.99257V9.72311H12.7769C12.4037 9.26715 11.9186 8.91576 11.369 8.70326C8.05658 7.37902 5.61194 8.96797 3.44363 13.8605C1.69211 17.8124 1.69394 22.2026 2.60093 24.4977C2.98854 25.4765 3.54874 26.1448 4.22431 26.4309C4.57259 26.5783 4.94693 26.6542 5.32511 26.6541C7.28708 26.6541 9.22396 24.6509 10.5008 22.525C10.7071 22.1739 11.0014 21.8827 11.3548 21.6803C11.7081 21.4778 12.1082 21.3711 12.5154 21.3706H18.4836C18.8908 21.3711 19.2909 21.4778 19.6442 21.6803C19.9976 21.8827 20.292 22.1739 20.4982 22.525C22.0156 25.049 24.4612 27.3999 26.7772 26.4302C27.4512 26.1448 28.0121 25.4765 28.399 24.4977C29.306 22.2026 29.3078 17.8124 27.5563 13.8605ZM15.215 8.39158H15.785V9.72311H15.215V8.39158ZM27.6569 24.2038C27.3504 24.979 26.9386 25.495 26.4676 25.6945C24.6208 26.4686 22.4661 24.2489 21.1823 22.1137C20.9024 21.6469 20.5072 21.2599 20.0346 20.9899C19.562 20.7199 19.0279 20.5761 18.4836 20.5722H12.5163C11.9721 20.5761 11.4379 20.7199 10.9653 20.9899C10.4927 21.2599 10.0975 21.6469 9.81768 22.1137C8.53379 24.2487 6.37985 26.4681 4.53303 25.6952C4.06038 25.495 3.64861 24.9792 3.34217 24.2038C2.49628 22.064 2.50973 17.9351 4.1721 14.1835C5.956 10.1591 7.64618 9.03409 9.24243 9.03409C9.87269 9.05309 10.4935 9.19239 11.0715 9.44449C11.5465 9.62345 11.9574 9.93975 12.2521 10.3531C12.289 10.4051 12.3378 10.4475 12.3944 10.4768C12.4511 10.5061 12.5139 10.5213 12.5777 10.5214H18.4211C18.4849 10.5214 18.5478 10.5061 18.6045 10.4768C18.6612 10.4476 18.71 10.4051 18.747 10.3531C19.0416 9.93975 19.4526 9.62345 19.9276 9.44449C22.045 8.59746 24.346 8.58606 26.8269 14.1838C28.4893 17.9351 28.5027 22.064 27.6569 24.2038Z" fill="#18ACAE"/>
<path d="M26.6189 18.2197C26.8016 19.2592 26.8693 20.3157 26.821 21.37C26.8155 21.4757 26.8522 21.5793 26.923 21.6579C26.9939 21.7366 27.093 21.7839 27.1988 21.7895H27.22C27.3221 21.7894 27.4203 21.7502 27.4944 21.6799C27.5684 21.6095 27.6127 21.5135 27.6181 21.4115C27.6694 20.2974 27.598 19.1811 27.4053 18.0827C27.3872 17.9784 27.3284 17.8856 27.2418 17.8247C27.1552 17.7637 27.048 17.7397 26.9437 17.7579C26.8395 17.776 26.7467 17.8348 26.6857 17.9214C26.6248 18.008 26.6008 18.1152 26.6189 18.2195V18.2197Z" fill="#18ACAE"/>
<path d="M10.8971 14.3402H9.70007V13.1431C9.7001 13.0907 9.6898 13.0388 9.66975 12.9904C9.64971 12.942 9.62032 12.898 9.58327 12.8609C9.54621 12.8239 9.50221 12.7945 9.45379 12.7745C9.40537 12.7544 9.35347 12.7441 9.30106 12.7441H7.93304C7.82722 12.7441 7.72573 12.7862 7.6509 12.861C7.57608 12.9358 7.53404 13.0373 7.53404 13.1431V14.3402H6.33702C6.2312 14.3402 6.12971 14.3822 6.05488 14.457C5.98006 14.5319 5.93802 14.6333 5.93802 14.7392V16.1072C5.93802 16.213 5.98006 16.3145 6.05488 16.3893C6.12971 16.4641 6.2312 16.5062 6.33702 16.5062H7.53404V17.7032C7.53404 17.809 7.57608 17.9105 7.6509 17.9853C7.72573 18.0602 7.82722 18.1022 7.93304 18.1022H9.30106C9.35347 18.1022 9.40537 18.0919 9.45379 18.0719C9.50221 18.0519 9.54621 18.0225 9.58327 17.9854C9.62032 17.9484 9.64971 17.9044 9.66975 17.8559C9.6898 17.8075 9.7001 17.7556 9.70007 17.7032V16.5062H10.8971C10.9495 16.5062 11.0014 16.4959 11.0498 16.4759C11.0982 16.4558 11.1422 16.4264 11.1793 16.3894C11.2163 16.3523 11.2457 16.3083 11.2658 16.2599C11.2858 16.2115 11.2961 16.1596 11.2961 16.1072V14.7392C11.2961 14.6868 11.2858 14.6349 11.2658 14.5864C11.2457 14.538 11.2163 14.494 11.1793 14.457C11.1422 14.4199 11.0982 14.3905 11.0498 14.3705C11.0014 14.3504 10.9495 14.3401 10.8971 14.3402ZM10.4981 15.7082H9.30106C9.19524 15.7082 9.09375 15.7502 9.01892 15.825C8.94409 15.8999 8.90206 16.0014 8.90206 16.1072V17.3042H8.33205V16.1072C8.33208 16.0548 8.32178 16.0029 8.30174 15.9545C8.2817 15.906 8.25231 15.862 8.21525 15.825C8.17819 15.7879 8.13419 15.7585 8.08577 15.7385C8.03735 15.7184 7.98545 15.7081 7.93304 15.7082H6.73603V15.1382H7.93304C7.98545 15.1382 8.03735 15.1279 8.08577 15.1079C8.13419 15.0878 8.17819 15.0584 8.21525 15.0214C8.25231 14.9843 8.2817 14.9403 8.30174 14.8919C8.32178 14.8435 8.33208 14.7916 8.33205 14.7392V13.5422H8.90206V14.7392C8.90206 14.845 8.94409 14.9465 9.01892 15.0213C9.09375 15.0961 9.19524 15.1382 9.30106 15.1382H10.4981V15.7082Z" fill="#18ACAE"/>
<path d="M17.122 18.4824H13.878C13.7722 18.4824 13.6707 18.5245 13.5958 18.5993C13.521 18.6741 13.479 18.7756 13.479 18.8814C13.479 18.9872 13.521 19.0887 13.5958 19.1636C13.6707 19.2384 13.7722 19.2804 13.878 19.2804H17.122C17.2278 19.2804 17.3293 19.2384 17.4041 19.1636C17.479 19.0887 17.521 18.9872 17.521 18.8814C17.521 18.7756 17.479 18.6741 17.4041 18.5993C17.3293 18.5245 17.2278 18.4824 17.122 18.4824Z" fill="#18ACAE"/>
<path d="M21.6608 14.6435C21.9201 14.6435 22.1736 14.5666 22.3892 14.4226C22.6048 14.2785 22.7728 14.0738 22.8721 13.8342C22.9713 13.5947 22.9972 13.331 22.9467 13.0767C22.8961 12.8224 22.7712 12.5888 22.5879 12.4055C22.4045 12.2221 22.1709 12.0973 21.9166 12.0467C21.6623 11.9961 21.3987 12.0221 21.1591 12.1213C20.9196 12.2205 20.7148 12.3885 20.5708 12.6041C20.4267 12.8197 20.3498 13.0732 20.3498 13.3325C20.3502 13.6801 20.4885 14.0133 20.7343 14.2591C20.98 14.5048 21.3133 14.6431 21.6608 14.6435ZM21.6608 12.8195C21.7623 12.8195 21.8615 12.8496 21.9458 12.906C22.0302 12.9623 22.096 13.0424 22.1348 13.1362C22.1736 13.2299 22.1838 13.3331 22.164 13.4326C22.1442 13.5321 22.0953 13.6235 22.0236 13.6953C21.9518 13.767 21.8604 13.8159 21.7609 13.8357C21.6614 13.8554 21.5583 13.8453 21.4645 13.8065C21.3708 13.7676 21.2907 13.7019 21.2343 13.6175C21.1779 13.5331 21.1478 13.434 21.1478 13.3325C21.148 13.1965 21.2021 13.0661 21.2983 12.97C21.3945 12.8738 21.5248 12.8197 21.6608 12.8195Z" fill="#18ACAE"/>
<path d="M21.6608 16.2031C21.4015 16.2031 21.1481 16.28 20.9325 16.4241C20.7169 16.5681 20.5488 16.7729 20.4496 17.0124C20.3504 17.252 20.3244 17.5156 20.375 17.7699C20.4256 18.0242 20.5505 18.2578 20.7338 18.4412C20.9172 18.6245 21.1508 18.7494 21.4051 18.8C21.6594 18.8506 21.923 18.8246 22.1625 18.7254C22.4021 18.6261 22.6069 18.4581 22.7509 18.2425C22.895 18.0269 22.9719 17.7734 22.9719 17.5141C22.9715 17.1666 22.8333 16.8333 22.5875 16.5875C22.3417 16.3417 22.0084 16.2035 21.6608 16.2031ZM21.6608 18.0271C21.5594 18.0271 21.4602 17.9971 21.3758 17.9407C21.2915 17.8843 21.2257 17.8042 21.1869 17.7105C21.1481 17.6167 21.1379 17.5136 21.1577 17.4141C21.1775 17.3145 21.2263 17.2231 21.2981 17.1514C21.3698 17.0796 21.4612 17.0308 21.5608 17.011C21.6603 16.9912 21.7634 17.0014 21.8572 17.0402C21.9509 17.079 22.031 17.1448 22.0874 17.2291C22.1438 17.3135 22.1738 17.4127 22.1738 17.5141C22.1737 17.6501 22.1196 17.7805 22.0234 17.8767C21.9272 17.9729 21.7968 18.027 21.6608 18.0271Z" fill="#18ACAE"/>
<path d="M23.7507 14.1133C23.4914 14.1133 23.2379 14.1902 23.0224 14.3342C22.8068 14.4783 22.6387 14.683 22.5395 14.9226C22.4403 15.1621 22.4143 15.4257 22.4649 15.6801C22.5155 15.9344 22.6403 16.168 22.8237 16.3513C23.007 16.5347 23.2406 16.6595 23.4949 16.7101C23.7493 16.7607 24.0129 16.7347 24.2524 16.6355C24.492 16.5363 24.6967 16.3682 24.8408 16.1527C24.9848 15.9371 25.0617 15.6836 25.0617 15.4243C25.0613 15.0767 24.923 14.7435 24.6773 14.4977C24.4315 14.252 24.0983 14.1137 23.7507 14.1133ZM23.7507 15.9373C23.6493 15.9373 23.5501 15.9072 23.4657 15.8508C23.3813 15.7945 23.3156 15.7144 23.2768 15.6206C23.2379 15.5269 23.2278 15.4237 23.2476 15.3242C23.2674 15.2247 23.3162 15.1333 23.388 15.0615C23.4597 14.9898 23.5511 14.9409 23.6506 14.9211C23.7501 14.9014 23.8533 14.9115 23.947 14.9503C24.0408 14.9892 24.1209 15.0549 24.1773 15.1393C24.2336 15.2236 24.2637 15.3228 24.2637 15.4243C24.2635 15.5603 24.2094 15.6907 24.1133 15.7868C24.0171 15.883 23.8867 15.9371 23.7507 15.9373Z" fill="#18ACAE"/>
<path d="M20.8809 15.4243C20.8809 15.165 20.804 14.9115 20.6599 14.6959C20.5159 14.4803 20.3111 14.3123 20.0716 14.2131C19.832 14.1138 19.5684 14.0879 19.3141 14.1385C19.0598 14.1891 18.8262 14.3139 18.6428 14.4973C18.4595 14.6806 18.3346 14.9142 18.284 15.1685C18.2335 15.4228 18.2594 15.6864 18.3586 15.926C18.4579 16.1656 18.6259 16.3703 18.8415 16.5144C19.0571 16.6584 19.3106 16.7353 19.5699 16.7353C19.9175 16.7349 20.2507 16.5967 20.4965 16.3509C20.7423 16.1051 20.8805 15.7719 20.8809 15.4243ZM19.5699 15.9373C19.4684 15.9373 19.3692 15.9072 19.2849 15.8508C19.2005 15.7945 19.1347 15.7144 19.0959 15.6206C19.0571 15.5269 19.0469 15.4237 19.0667 15.3242C19.0865 15.2247 19.1354 15.1333 19.2071 15.0615C19.2789 14.9898 19.3703 14.9409 19.4698 14.9211C19.5693 14.9014 19.6724 14.9115 19.7662 14.9503C19.8599 14.9892 19.94 15.0549 19.9964 15.1393C20.0528 15.2236 20.0829 15.3228 20.0829 15.4243C20.0827 15.5601 20.0287 15.6904 19.9327 15.7865C19.8368 15.8827 19.7066 15.9369 19.5708 15.9373H19.5699Z" fill="#18ACAE"/>
</svg>
