<svg width="31" height="31" viewBox="0 0 31 31" fill="none" xmlns="http://www.w3.org/2000/svg">
<path d="M25.0359 20.1777C25.3164 20.1777 25.5438 19.9504 25.5438 19.6699C25.5438 19.3895 25.3164 19.1621 25.0359 19.1621C24.7555 19.1621 24.5281 19.3895 24.5281 19.6699C24.5281 19.9504 24.7555 20.1777 25.0359 20.1777Z" fill="#18ACAE"/>
<path d="M5.70486 20.1777C5.98532 20.1777 6.21268 19.9504 6.21268 19.6699C6.21268 19.3895 5.98532 19.1621 5.70486 19.1621C5.42441 19.1621 5.19705 19.3895 5.19705 19.6699C5.19705 19.9504 5.42441 20.1777 5.70486 20.1777Z" fill="#18ACAE"/>
<path d="M27.7101 27.4842H23.3492L23.3225 15.0036C23.3219 14.7234 23.0946 14.4968 22.8146 14.4968C22.8143 14.4968 22.8139 14.4968 22.8135 14.4968C22.533 14.4974 22.3061 14.7252 22.3067 15.0057L22.3334 27.4842H20.8582L20.8452 21.9313C20.8445 21.6512 20.6173 21.4246 20.3373 21.4246C20.3369 21.4246 20.3365 21.4246 20.3361 21.4246C20.0556 21.4253 19.8287 21.6532 19.8294 21.9337L19.8425 27.4842H18.6092V20.7628C20.0469 20.6357 21.1772 19.4543 21.1772 18.0198V13.0978C21.1772 12.3152 21.0111 11.5481 20.6935 10.8396C21.6965 10.9065 22.6301 11.3146 23.3484 12.0082C24.1343 12.7672 24.5685 13.7764 24.5707 14.8505L24.58 17.7407C24.5809 18.0207 24.8081 18.247 25.0879 18.247C25.0884 18.247 25.089 18.247 25.0895 18.247C25.37 18.2461 25.5967 18.018 25.5958 17.7375L25.5865 14.8478C25.5836 13.497 25.0394 12.229 24.054 11.2775C23.4911 10.734 22.8226 10.3314 22.094 10.0872C22.61 9.59602 22.9321 8.90285 22.9305 8.13586C22.9273 6.65599 21.7224 5.45425 20.2432 5.45425C20.2413 5.45425 20.2393 5.45425 20.2374 5.45425C19.8065 5.45521 19.378 5.56074 18.9983 5.75944C18.7498 5.88955 18.6537 6.19647 18.7838 6.44499C18.914 6.69352 19.221 6.78954 19.4694 6.65944C19.7084 6.53437 19.9675 6.47064 20.2396 6.47003C21.1628 6.46957 21.9128 7.21631 21.9147 8.13799C21.9167 9.05967 21.1685 9.81113 20.2468 9.81311C20.2249 9.81316 20.2035 9.81504 20.1824 9.81778C20.1554 9.8189 20.1284 9.81986 20.1012 9.82139C19.3675 8.81714 18.3373 8.08863 17.1641 7.71894C17.7869 7.17243 18.1814 6.37146 18.1814 5.47959C18.1812 3.83661 16.8446 2.5 15.2017 2.5C13.5587 2.5 12.2221 3.83661 12.2221 5.47959C12.2221 6.41468 12.6554 7.25013 13.3315 7.79679C12.2545 8.18547 11.3107 8.88173 10.6253 9.81849C10.5448 9.81489 10.4645 9.81275 10.3846 9.81275C10.3466 9.81275 10.3087 9.81336 10.2709 9.81418C10.2616 9.81367 10.2524 9.81275 10.243 9.81275C9.32135 9.81275 8.57152 9.06292 8.57152 8.14124C8.57152 7.21956 9.32135 6.46972 10.243 6.46972C10.5216 6.46972 10.7972 6.5395 11.0399 6.67148C11.2864 6.80539 11.5947 6.71428 11.7288 6.46784C11.8628 6.2214 11.7716 5.91301 11.5252 5.779C11.1339 5.56627 10.6906 5.45384 10.243 5.45384C8.76118 5.45384 7.55564 6.65939 7.55564 8.14119C7.55564 8.9481 7.91364 9.67255 8.47854 10.1656C6.55834 10.906 5.19695 12.7306 5.19695 14.8588V17.7391C5.19695 18.0196 5.42435 18.247 5.70486 18.247C5.98538 18.247 6.21278 18.0196 6.21278 17.7391V14.8588C6.21278 12.7524 7.89445 11.0194 10.0287 10.8443C9.71247 11.5514 9.54707 12.3168 9.54707 13.0978V18.0198C9.54707 19.4827 10.7225 20.6824 12.2006 20.7691V27.4841H10.817V21.9324C10.817 21.6518 10.5896 21.4244 10.309 21.4244C10.0285 21.4244 9.80113 21.6518 9.80113 21.9324V27.4842H8.55263V15.0098C8.55263 14.7292 8.32523 14.5018 8.04471 14.5018C7.7642 14.5018 7.5368 14.7292 7.5368 15.0098V27.4842H3.50791C3.2274 27.4842 3 27.7116 3 27.9921C3 28.2726 3.22735 28.5 3.50791 28.5H27.7101C27.9906 28.5 28.218 28.2726 28.218 27.9921C28.2179 27.7116 27.9906 27.4842 27.7101 27.4842ZM13.2379 5.47959C13.2379 4.39678 14.1188 3.51583 15.2016 3.51583C16.2844 3.51583 17.1653 4.39678 17.1653 5.47959C17.1653 6.5624 16.2844 7.44335 15.2016 7.44335C14.1189 7.44335 13.2379 6.5624 13.2379 5.47959ZM18.1013 12.7612C17.8208 12.7612 17.5934 12.9886 17.5934 13.2691V27.4842H15.7844V20.4181C15.7844 20.1376 15.557 19.9102 15.2765 19.9102C14.996 19.9102 14.7686 20.1376 14.7686 20.4181V27.4842H13.2165V13.2691C13.2165 12.9886 12.9891 12.7612 12.7086 12.7612C12.428 12.7612 12.2006 12.9886 12.2006 13.2691V19.7508C11.2832 19.6676 10.5629 18.9232 10.5629 18.0198V13.0979C10.5629 12.2189 10.8185 11.3633 11.3021 10.6236C12.1884 9.26833 13.7061 8.45918 15.3621 8.45918C17.0208 8.45918 18.5399 9.27041 19.4257 10.6293C19.9069 11.3676 20.1613 12.2213 20.1613 13.0979V18.0198C20.1613 18.8949 19.4854 19.6207 18.6092 19.741V13.2691C18.6092 12.9886 18.3818 12.7612 18.1013 12.7612Z" fill="#18ACAE"/>
</svg>
