<svg width="31" height="31" viewBox="0 0 31 31" fill="none" xmlns="http://www.w3.org/2000/svg">
<path d="M28.795 14.6312L23.8133 10.3769C23.8191 10.3478 23.8249 10.3187 23.8307 10.2838V4.72012C23.8249 4.38839 23.563 4.12068 23.2313 4.10904H20.4494C20.1294 4.10904 19.8675 4.39421 19.8675 4.72012V7.02475L15.8809 3.626C15.6656 3.43977 15.3455 3.43977 15.1244 3.626L2.21029 14.6254C1.96004 14.829 1.93094 15.1957 2.13463 15.4459C2.33833 15.6962 2.70497 15.7253 2.95522 15.5216C2.96104 15.5158 2.96104 15.5158 2.96686 15.51L15.5026 4.83651L19.9897 8.6601L22.6726 10.9414L28.0442 15.5158C28.2887 15.7253 28.6553 15.6962 28.8648 15.4518C29.0685 15.2073 29.0394 14.8407 28.795 14.6312ZM22.661 9.39339L21.0314 8.01993V5.27882H22.661V9.39339Z" fill="#01A0A3"/>
<path fill-rule="evenodd" clip-rule="evenodd" d="M26.2285 15.8061C26.4729 16.0098 26.5078 16.3764 26.2925 16.6267C26.1819 16.7547 26.019 16.8304 25.8502 16.8304C25.7105 16.8304 25.5825 16.778 25.4777 16.6907L24.7503 16.0621V26.9742C24.7445 27.3059 24.4767 27.5678 24.1508 27.5736H17.075V28.1297H16.175V25.4297H17.075V26.4039H18.2806V19.2185H12.7248V26.4039H13.925V25.4297H14.825V28.1297H13.925V27.5736H6.84868C6.52277 27.5678 6.25506 27.3001 6.24924 26.9742V16.0621L5.52177 16.6907L5.51595 16.6965C5.27734 16.9002 4.91651 16.8711 4.71282 16.6267C4.50331 16.3822 4.53241 16.0156 4.77684 15.8061L15.1244 6.96585C15.3455 6.77961 15.6656 6.77961 15.881 6.96585L26.2285 15.8061ZM19.4445 18.654V26.4039H23.5921V15.067L15.5027 8.17636L7.41319 15.067V26.4039H11.5608V18.654C11.5608 18.3339 11.7994 18.0546 12.1195 18.0546H18.8858C19.2059 18.0546 19.4445 18.3339 19.4445 18.654Z" fill="#01A0A3"/>
</svg>
